# xmcd
#
# Track frame offsets: 
#        150
#        13145
#        32805
#        47942
#        64272
#        79745
#        92350
#        104747
#        117735
#        132290
#
# Disc length: 1943 seconds
#
# Revision: 10
# Processed by: cddbd v1.5.2PL0 Copyright (c) Steve Scherf et al.
# Submitted via: ExactAudioCopy v1.3
#
DISCID=8c07950a
DTITLE=Johnny Cash - American VI: Ain't No Grave
DYEAR=2010
DGENRE=Country
TTITLE0=Ain't No Grave
TTITLE1=Redemption Day
TTITLE2=For The Good Days
TTITLE3=1 Corinthians 15:55
TTITLE4=Can't Help But Wonder Where I'm Bound
TTITLE5=Satisfied Mind
TTITLE6=I Don't Hurt Anymore
TTITLE7=Cool Water
TTITLE8=Last Night I Had The Strangest Dream
TTITLE9=Aloha Oe
EXTD=YEAR: 2010
EXTT0=
EXTT1=
EXTT2=
EXTT3=
EXTT4=
EXTT5=
EXTT6=
EXTT7=
EXTT8=
EXTT9=
PLAYORDER=
